<svg width="40" height="40" xmlns="http://www.w3.org/2000/svg">
 <g>
  <title>Layer 1</title>
  <g stroke="null" id="svg_25">
   <ellipse stroke="#0b222c" filter="url(#svg_7_blur)" ry="19.32687" rx="19.35725" id="svg_7" cy="20.01429" cx="19.95674" fill="#a59186"/>
   <path stroke="#0b222c" id="svg_11" d="m6.34137,6.27993c2.33956,-1.38975 3.82718,-1.1855 2.574,-0.73161c-1.25319,0.45389 0.76241,0.14815 1.73933,-0.33451c0.97692,-0.48266 2.96723,-1.53523 3.8839,-1.2224c0.91667,0.31283 -5.49055,0.45517 1.42606,1.26697c6.91661,0.8118 0.25593,0.30811 1.19003,0.89593c0.93411,0.58782 2.32891,0.74488 3.85084,0.04693c1.52194,-0.69795 -0.45043,0.19231 -1.30494,-0.34905c-0.85451,-0.54135 -0.23369,-0.59852 0.10886,-1.18496c0.34255,-0.58645 2.6165,-0.61085 3.70976,0.45421c1.09325,1.06506 0.39774,1.49459 1.89546,2.86682c1.49772,1.37223 1.63218,-2.70574 2.92416,-0.55425c1.29199,2.1515 1.89849,2.23861 2.70319,1.15727c0.8047,-1.08133 -5.66899,-2.69404 -0.69693,-2.5602c4.97207,0.13384 1.5207,1.67991 1.35129,0.97497c-0.16941,-0.70494 -0.80391,-0.74361 -1.6156,-0.59956c-0.8117,0.14405 2.41566,2.46415 2.90249,3.2202c0.92534,1.1021 3.42759,-1.73468 2.78392,-0.25759c-0.64367,1.4771 -1.72964,0.22404 -3.34554,2.05008c-0.80795,0.91302 -1.3295,-0.43628 -2.98932,-1.50945c-1.65982,-1.07318 0.1032,1.84728 -0.23129,1.82017c-0.66898,-0.05423 -3.32995,-2.30372 -4.25978,-0.53835c-0.92983,1.76537 -1.93396,-4.01216 -3.38653,-3.47769c-1.45257,0.53447 -3.40012,5.70805 -4.49474,5.58359c-1.09462,-0.12446 0.59517,-2.4103 -2.50713,-3.20836c-1.55115,-0.39903 2.3068,-1.66919 -2.65544,-2.69205c-4.96224,-1.02286 -6.90869,2.35394 -4.53948,2.97163c2.36921,0.61768 1.98652,0.25313 1.96235,0.28752c-0.02417,0.0344 -1.45431,-0.29044 -2.16384,-1.01713c-0.70953,-0.72669 0.82564,-1.88186 3.06313,-1.6981c1.11875,0.09188 2.3804,0.2284 2.79595,0.99968c0.41556,0.77128 -2.8029,2.691 -1.62959,1.52172c1.17331,-1.16928 1.06117,-1.66271 -1.14534,-1.27201c-1.10325,0.19535 -1.1838,-0.28184 0.06848,-0.60253c1.25228,-0.32069 -1.27139,-0.34499 -2.35997,0.15057c-0.54429,0.24778 -1.09274,0.53269 -0.38739,0.71967c0.35267,0.09349 0.77475,-0.02025 1.16197,0.59482c0.19361,0.30753 1.69466,0.40565 1.22154,0.87261c-0.47312,0.46695 1.6407,0.4795 2.38109,1.20583c0.37019,0.36316 -4.68622,1.22992 -4.59861,0.56384c0.08761,-0.66607 -1.88359,0.24447 -2.89882,-0.63989c-1.01523,-0.88435 -1.67633,-2.83319 1.54465,-5.83107" fill="#a79c86"/>
   <path stroke="#0b222c" id="svg_17" d="m33.33534,33.91698c-2.29353,1.26508 -3.75189,1.07916 -2.52336,0.66598c1.22853,-0.41317 -0.74741,-0.13486 -1.70511,0.3045c-0.9577,0.43936 -2.90885,1.39751 -3.80749,1.11275c-0.89864,-0.28476 5.38253,-0.41434 -1.39801,-1.15332c-6.78053,-0.73898 -0.25089,-0.28047 -1.16662,-0.81556c-0.91573,-0.53509 -2.28309,-0.67806 -3.77508,-0.04272c-1.49199,0.63534 0.44157,-0.17506 1.27927,0.31774c0.8377,0.49279 0.22909,0.54483 -0.10672,1.07866c-0.33581,0.53384 -2.56503,0.55605 -3.63677,-0.41347c-1.07174,-0.96952 -0.38992,-1.36051 -1.85817,-2.60965c-1.46825,-1.24914 -1.60007,2.46302 -2.86663,0.50453c-1.26657,-1.95849 -1.86114,-2.03779 -2.65001,-1.05346c-0.78887,0.98433 5.55746,2.45237 0.68322,2.33053c-4.87425,-0.12184 -1.49078,-1.52921 -1.3247,-0.88751c0.16608,0.6417 0.78809,0.67691 1.58382,0.54578c0.79573,-0.13113 -2.36814,-2.2431 -2.84539,-2.93133c-0.90713,-1.00323 -3.36015,1.57907 -2.72915,0.23448c0.63101,-1.34459 1.69562,-0.20394 3.27972,-1.86617c0.79205,-0.83112 1.30334,0.39714 2.93051,1.37404c1.62716,0.9769 -0.10117,-1.68157 0.22673,-1.65689c0.65582,0.04936 3.26443,2.09706 4.17597,0.49005c0.91154,-1.60701 1.89591,3.65224 3.3199,3.16572c1.42399,-0.48652 3.33322,-5.196 4.40631,-5.08271c1.07309,0.11329 -0.58346,2.19408 2.45781,2.92055c1.52063,0.36323 -2.26142,1.51945 2.6032,2.45055c4.86462,0.9311 6.77277,-2.14278 4.45017,-2.70505c-2.3226,-0.56227 -1.94743,-0.23042 -1.92374,-0.26173c0.02369,-0.03131 1.42569,0.26439 2.12127,0.92588c0.69557,0.6615 -0.80939,1.71305 -3.00286,1.54577c-1.09674,-0.08364 -2.33357,-0.20791 -2.74095,-0.91c-0.40738,-0.70209 2.74776,-2.44959 1.59753,-1.38521c-1.15023,1.06439 -1.04029,1.51356 1.12281,1.1579c1.08155,-0.17783 1.16051,0.25655 -0.06713,0.54848c-1.22764,0.29193 1.24637,0.31404 2.31354,-0.13706c0.53358,-0.22555 1.07124,-0.4849 0.37977,-0.65511c-0.34574,-0.0851 -0.7595,0.01843 -1.13911,-0.54146c-0.1898,-0.27995 -1.66132,-0.36926 -1.19751,-0.79433c0.46381,-0.42506 -1.60842,-0.43649 -2.33425,-1.09766c-0.36291,-0.33059 4.59402,-1.11958 4.50814,-0.51326c-0.08589,0.60632 1.84654,-0.22254 2.84179,0.58248c0.99526,0.80502 1.74911,2.42365 -1.51426,5.30798" fill="#a79c86"/>
   <path stroke="#0b222c" id="svg_23" d="m1.55995,16.6565c0.47249,-0.89551 2.0857,-1.97514 3.11457,-1.02444c1.02887,0.9507 1.61742,1.4618 3.78485,5.1562c2.16744,3.6944 3.14902,-0.37732 7.60038,0.90372c4.45135,1.28104 1.91701,-5.33551 5.85689,-1.80433c3.93988,3.53118 3.89516,0.19142 6.05821,-0.21298c2.16305,-0.4044 3.86069,-1.96979 4.18102,1.10751c0.32033,3.0773 4.49899,-0.9343 3.32775,0.97972c-1.17124,1.91402 0.89593,0.59635 1.7492,0.55375c0.85327,-0.0426 1.15191,-0.38337 1.36523,0.08519c0.1991,0.21298 0.25137,0.38932 0.45046,0.6023c0.04266,0.25558 -0.66378,0.6756 -1.2184,0.633c-0.55463,-0.0426 -1.40789,0.76674 -2.13317,0.76674c-0.72528,0 -2.94378,-0.76674 -3.19976,-0.29818c-0.25598,0.46856 -3.15709,1.2353 -3.66905,1.2353c-0.51196,0 2.8418,-2.78331 -2.90111,-0.89453c-5.74291,1.88879 -1.50363,-2.6763 -4.39433,-1.87425c-2.89071,0.80206 2.03848,2.54851 -3.32254,3.0898c-5.36102,0.54129 -4.89901,-5.5739 -5.2528,-2.40826c-0.35379,3.16564 -1.76429,1.38698 -4.0062,0.24415c-2.24191,-1.14283 0.75181,1.16673 0.18912,1.85684c-0.56269,0.69012 0.55592,0.82777 -2.88108,-2.56955c-3.43701,-3.39733 -1.85147,-0.82096 -1.3957,0.34889c0.45577,1.16984 2.12871,4.60997 0.121,3.05675l-1.85382,-1.3086c-2.50921,-2.01485 -2.48172,-5.20658 -2.50305,-5.50476c-0.04266,-0.59635 0.45987,-1.82449 0.93236,-2.71999z" fill="#a79c86"/>
   <path stroke="#0b222c" id="svg_24" d="m36.63242,10.21581c-0.50404,-0.77205 -4.64038,3.29447 -8.12749,3.93582c-3.48712,0.64136 -2.47332,2.27964 -9.50218,2.31528c-7.02886,0.03563 -10.25598,-0.23997 -12.05999,-0.89368c-1.80401,-0.65372 1.41874,1.05802 3.11715,2.06005c1.69841,1.00203 1.71224,0.1956 4.0836,0c2.37136,-0.1956 8.76368,0.73298 8.76368,0.73298c0,0 4.26713,1.37433 7.6166,-0.77879c3.34947,-2.15312 6.37775,-1.69501 6.37775,-1.69501c0,0 2.03999,0.25196 1.8018,-0.64136c-0.23819,-0.89331 -0.77508,-2.42722 -1.00719,-2.90014c-0.23211,-0.47292 -0.55969,-1.3631 -1.06373,-2.13515z" fill="#a79c86"/>
  </g>
 </g>
 <defs>
  <filter id="svg_7_blur">
   <feGaussianBlur stdDeviation="0" in="SourceGraphic"/>
  </filter>
 </defs>
</svg>
