<svg width="400" height="400" xmlns="http://www.w3.org/2000/svg">
 <g>
  <title>Layer 1</title>
  <g stroke="null" id="svg_25">
   <ellipse stroke="#0b222c" filter="url(#svg_7_blur)" ry="199" rx="199" id="svg_7" cy="199.98806" cx="200.07136" fill="#344955"/>
   <path stroke="#0b222c" id="svg_11" d="m60.10016,58.5716c24.05156,-14.30963 39.34492,-12.2066 26.46169,-7.53307c-12.88324,4.67352 7.83785,1.52547 17.88097,-3.44429c10.04311,-4.96975 30.50426,-15.80756 39.92803,-12.58654c9.42376,3.22102 -56.44492,4.68666 14.66047,13.04543c71.1054,8.35877 2.63102,3.17242 12.23399,9.22498c9.60297,6.05256 23.94206,7.66968 39.58813,0.48318c15.64608,-7.1865 -4.63063,1.98011 -13.41533,-3.59398c-8.78471,-5.57408 -2.40243,-6.16268 1.11911,-12.20104c3.52154,-6.03836 26.89867,-6.28963 38.13771,4.67681c11.23905,10.96645 4.08893,15.38911 19.48605,29.51837c15.39713,14.12927 16.7794,-27.85978 30.06152,-5.70682c13.28212,22.15297 19.5172,23.04991 27.78984,11.91593c8.27264,-11.13398 -58.27943,-27.73932 -7.16467,-26.36117c51.11476,1.37814 15.63337,17.2973 13.89175,10.03886c-1.74161,-7.25843 -8.26446,-7.65665 -16.60904,-6.17344c-8.34458,1.4832 24.83394,25.37227 29.83869,33.15698c9.51281,11.34781 35.23691,-17.86125 28.61973,-2.65225c-6.61718,15.209 -17.7814,2.30683 -34.39343,21.10875c-8.30601,9.40096 -13.66776,-4.49216 -30.73133,-15.54215c-17.06358,-11.05 1.06097,19.02065 -2.3777,18.74147c-6.87735,-0.55837 -34.23312,-23.72038 -43.79215,-5.54312c-9.55903,18.17726 -19.88184,-41.31136 -34.81478,-35.80821c-14.93295,5.50315 -34.95449,58.77319 -46.20764,57.49172c-11.25315,-1.28147 6.11855,-24.81779 -25.77429,-33.03505c-15.94643,-4.10863 23.71478,-17.18685 -27.29899,-27.71878c-51.01377,-10.53193 -71.02398,24.23748 -46.66757,30.59748c24.35641,6.36 20.42214,2.60633 20.17368,2.96047c-0.24846,0.35415 -14.95082,-2.99054 -22.2451,-10.4729c-7.29428,-7.48236 8.48786,-19.3767 31.49013,-17.48459c11.50114,0.94606 24.47139,2.35169 28.74348,10.29324c4.27209,7.94155 -28.81489,27.70795 -16.75277,15.66842c12.06212,-12.03953 10.90919,-17.1202 -11.77455,-13.09726c-11.34187,2.01147 -12.16992,-2.90195 0.70399,-6.20401c12.8739,-3.30205 -13.07035,-3.55218 -24.26135,1.55035c-5.5955,2.55127 -11.2338,5.48484 -3.98256,7.41012c3.62562,0.96264 7.96468,-0.20851 11.94553,6.12455c1.99042,3.16653 17.42175,4.17684 12.55792,8.98482c-4.86383,4.80798 16.86706,4.9372 24.47854,12.41588c3.80574,3.73934 -48.17614,12.66388 -47.27548,5.80562c0.90066,-6.85826 -19.36406,2.51717 -29.80102,-6.58861c-10.43696,-9.10578 -17.23327,-29.17209 15.87958,-60.0399" fill="#f9aa33"/>
   <path stroke="#0b222c" id="svg_17" d="m337.60848,343.13776c-23.57838,13.02596 -38.57086,11.11158 -25.94109,6.8573c12.62978,-4.25427 -7.68365,-1.38862 -17.52919,3.13531c-9.84553,4.52393 -29.90413,14.38951 -39.1425,11.45744c-9.23836,-2.93207 55.33445,-4.26623 -14.37205,-11.87516c-69.7065,-7.60893 -2.57926,-2.88783 -11.9933,-8.39744c-9.41405,-5.5096 -23.47103,-6.98166 -38.80929,-0.43984c-15.33827,6.54182 4.53953,-1.80248 13.1514,3.27158c8.61188,5.07405 2.35517,5.60984 -1.09709,11.10652c-3.45226,5.49668 -26.36948,5.72541 -37.3874,-4.25727c-11.01794,-9.98268 -4.00849,-14.0086 -19.10269,-26.87037c-15.09421,-12.86178 -16.44929,25.36056 -29.4701,5.19488c-13.02081,-20.16569 -19.13323,-20.98217 -27.24311,-10.84699c-8.10989,10.13518 57.13286,25.25091 7.02372,23.99639c-50.10915,-1.25451 -15.32581,-15.74561 -13.61845,-9.1383c1.70735,6.6073 8.10187,6.9698 16.28228,5.61964c8.18041,-1.35015 -24.34537,-23.0962 -29.25166,-30.18257c-9.32566,-10.32983 -34.54367,16.25897 -28.05668,2.41432c6.487,-13.84465 17.43158,-2.09989 33.71679,-19.21515c8.1426,-8.55763 13.39887,4.08918 30.12673,14.14791c16.72788,10.05874 -1.0401,-17.31437 2.33092,-17.06023c6.74205,0.50828 33.55963,21.5925 42.9306,5.04586c9.37097,-16.54663 19.49069,37.60544 34.12985,32.59596c14.63917,-5.00948 34.26681,-53.50083 45.29857,-52.33431c11.03176,1.16651 -5.99818,22.59146 25.26722,30.07158c15.63271,3.74006 -23.24822,15.64507 26.76192,25.23221c50.01015,9.58714 69.62668,-22.06321 45.74945,-27.85267c-23.87723,-5.78946 -20.02036,-2.37252 -19.77679,-2.6949c0.24357,-0.32238 14.65668,2.72227 21.80746,9.53341c7.15078,6.81114 -8.32087,17.63848 -30.87061,15.9161c-11.27487,-0.86119 -23.98995,-2.14073 -28.17799,-9.36986c-4.18804,-7.22914 28.248,-25.22235 16.42318,-14.26285c-11.82481,10.9595 -10.69457,15.5844 11.5429,11.92234c11.11873,-1.83103 11.93049,2.64162 -0.69014,5.64747c-12.62062,3.00583 12.81321,3.23352 23.78404,-1.41127c5.48542,-2.3224 11.01279,-4.99281 3.90421,-6.74538c-3.55429,-0.87628 -7.80799,0.18981 -11.71052,-5.57514c-1.95126,-2.88247 -17.079,-3.80215 -12.31086,-8.17882c4.76814,-4.37667 -16.53522,-4.4943 -23.99696,-11.30209c-3.73087,-3.4039 47.22833,-11.52784 46.3454,-5.28482c-0.88294,6.24303 18.9831,-2.29136 29.21473,5.99757c10.23162,8.28893 17.98153,24.95522 -15.56718,54.6539" fill="#f9aa33"/>
   <path stroke="#0b222c" id="svg_23" d="m10.94529,165.41446c4.85739,-9.22063 21.44182,-20.33714 32.01898,-10.54818c10.57715,9.78896 16.62767,15.05147 38.90976,53.09106c22.28209,38.03959 32.37317,-3.88514 78.13478,9.30515c45.76162,13.1903 19.70765,-54.93733 60.21107,-18.57833c40.50343,36.359 40.04372,1.97097 62.28069,-2.19298c22.23697,-4.16395 39.68935,-20.28206 42.98245,11.4035c3.29311,31.68556 46.25132,-9.62005 34.21052,10.08772c-12.0408,19.70777 9.21053,6.14035 17.98246,5.70175c8.77192,-0.43859 11.8421,-3.94736 14.03508,0.8772c2.04678,2.19298 2.58414,4.0086 4.63092,6.20158c0.4386,2.63158 -6.8239,6.95631 -12.52565,6.51771c-5.70176,-0.43859 -14.47369,7.89474 -21.92983,7.89474c-7.45614,0 -30.26315,-7.89474 -32.89473,-3.07018c-2.63158,4.82456 -32.45613,12.7193 -37.71929,12.7193c-5.26316,0 29.21478,-28.65852 -29.82456,-9.21052c-59.03934,19.448 -15.45785,-27.55669 -45.17543,-19.29825c-29.71757,8.25844 20.95633,26.24089 -34.15703,31.81428c-55.11336,5.57338 -50.3637,-57.39192 -54.00085,-24.79673c-3.63714,32.59519 -18.13758,14.28113 -41.18528,2.5139c-23.04769,-11.76722 7.72892,12.01326 1.94426,19.11905c-5.78466,7.1058 5.71512,8.52321 -29.61862,-26.45752c-35.33374,-34.98073 -19.03386,-8.45303 -14.34837,3.59232c4.68549,12.04534 21.88397,47.46672 1.24395,31.47399l-19.05799,-13.47403c-25.79562,-20.74603 -25.51303,-53.60982 -25.73232,-56.67999c-0.4386,-6.14035 4.72764,-18.7859 9.58503,-28.00654z" fill="#f9aa33"/>
   <path stroke="#0b222c" id="svg_24" d="m371.5038,99.09754c-5.18171,-7.94944 -47.70485,33.92161 -83.55375,40.52535c-35.84891,6.60375 -25.42665,23.47245 -97.68605,23.83935c-72.2594,0.3669 -105.43543,-2.47084 -123.98133,-9.20185c-18.54589,-6.73102 14.5852,10.89396 32.04551,21.21142c17.46032,10.31746 17.6025,2.01405 41.98096,0c24.37846,-2.01405 90.09397,7.54714 90.09397,7.54714c0,0 43.86774,14.15089 78.30157,-8.01884c34.43382,-22.16972 65.56577,-17.45276 65.56577,-17.45276c0,0 20.97185,2.59429 18.52321,-6.60375c-2.44864,-9.19804 -7.96811,-24.99194 -10.3543,-29.86143c-2.38619,-4.86949 -5.75384,-14.03519 -10.93556,-21.98463z" fill="#f9aa33"/>
  </g>
 </g>
 <defs>
  <filter id="svg_7_blur">
   <feGaussianBlur stdDeviation="0" in="SourceGraphic"/>
  </filter>
 </defs>
</svg>